{
  "title": "The.Grand.Budapest.Hotel.2014.BRRip.720p.x264.AAC-PRiSTiNE [P2PD",
  "uid": 10356749,
  "size": 639790241,
  "categoryP": "video",
  "categoryS": "hd___movies",
  "magnet": "?xt=urn:btih:d1108856e17a7e04dbac548e83b8ed576a3a30a7&amp;dn=The.Grand.Budapest.Hotel.2014.BRRip.720p.x264.AAC-PRiSTiNE+%5BP2PD&amp;tr=udp%3A%2F%2Ftracker.openbittorrent.com%3A80&amp;tr=udp%3A%2F%2Fopen.demonii.com%3A1337&amp;tr=udp%3A%2F%2Ftracker.coppersurfer.tk%3A6969&amp;tr=udp%3A%2F%2Fexodus.desync.com%3A6969",
  "seeders": 68,
  "leechers": 5,
  "uploader": "ValidusVyto",
  "files": -1,
  "time": 1402706195,
  "description": "The.Grand.Budapest.Hotel.2014.BRRip.720p.x264.AAC-PRiSTiNE\n\n\nGenre: Comedy &lt;a href=&quot;\nhttp://www.imdb.com/title/tt2278388/&quot; rel=&quot;nofollow&quot; target=&quot;_NEW&quot;&gt;\nhttp://www.imdb.com/title/tt2278388/&lt;/a&gt;\n\n\nFormat                         : MPEG-4\nFile size                      : 601 MiB\nDuration                       : 1h 39mn\nOverall bit rate               : 841 Kbps\n\nVideo\nFormat                         : AVC\nBit rate                       : 768 Kbps\nWidth                          : 1 280 pixels\nHeight                         : 688 pixels\nDisplay aspect ratio           : 1.85:1\nFrame rate mode                : Constant\nFrame rate                     : 23.976 fps\nBit depth                      : 8 bits\nStream size                    : 549 MiB (91%)\n\nAudio\nFormat                         : AAC\nBit rate                       : 69.3 Kbps\nChannel(s)                     : 2 channels\nChannel positions              : Front: L R\nSampling rate                  : 48.0 KHz \nStream size                    : 49.5 MiB (8%)\nLanguage                       : English\n\nSubtitle                       : Yes (English)\n &lt;a href=&quot;\nhttp://someimage.com/UHPYUen&quot; rel=&quot;nofollow&quot; target=&quot;_NEW&quot;&gt;\nhttp://someimage.com/UHPYUen&lt;/a&gt; &lt;a href=&quot;\nhttp://someimage.com/KApcmVV&quot; rel=&quot;nofollow&quot; target=&quot;_NEW&quot;&gt;\nhttp://someimage.com/KApcmVV&lt;/a&gt; &lt;a href=&quot;\nhttp://someimage.com/ymCFSGa&quot; rel=&quot;nofollow&quot; target=&quot;_NEW&quot;&gt;\nhttp://someimage.com/ymCFSGa&lt;/a&gt; &lt;a href=&quot;\nhttp://someimage.com/VVZFyM2&quot; rel=&quot;nofollow&quot; target=&quot;_NEW&quot;&gt;\nhttp://someimage.com/VVZFyM2&lt;/a&gt; &lt;a href=&quot;\nhttp://someimage.com/6xEEM32&quot; rel=&quot;nofollow&quot; target=&quot;_NEW&quot;&gt;\nhttp://someimage.com/6xEEM32&lt;/a&gt; &lt;a href=&quot;\nhttp://someimage.com/TnH0eJE&quot; rel=&quot;nofollow&quot; target=&quot;_NEW&quot;&gt;\nhttp://someimage.com/TnH0eJE&lt;/a&gt;\n\n----------------------------------------------------------------------------------------------------\n\n\nRecommend to you to use latest version of VLC player. Install K-Lite Codec Pack or shark007 codecs\nin case of any kind of problem in playback (For non-VLC Media Player users). Alternatively, install\nCore AVC codecs, the fastest decoder that there is coupled with Community Center Codec Pack and play\non Windows Media Player Classic. Check sample to be sure.\n\nEncoder Notes:Looking For Early Access To Anything You Can Provide DVDScr, R5, DVDR, BluRay, Direct\nAudio, Music Releases and Seedboxes. We require dedicated servers, so as to do more \nand fast releases of movies.\n\nEncode by PRiSTiNE @ P2PDL Torrent Sharing Community! Find us :)",
  "parsed": {
    "xt": "urn:btih:d1108856e17a7e04dbac548e83b8ed576a3a30a7",
    "dn": "The.Grand.Budapest.Hotel.2014.BRRip.720p.x264.AAC-PRiSTiNE [P2PD",
    "tr": [
      "udp://exodus.desync.com:6969",
      "udp://open.demonii.com:1337",
      "udp://tracker.coppersurfer.tk:6969",
      "udp://tracker.openbittorrent.com:80"
    ],
    "infoHash": "d1108856e17a7e04dbac548e83b8ed576a3a30a7",
    "infoHashBuffer": {
      "type": "Buffer",
      "data": [
        209,
        16,
        136,
        86,
        225,
        122,
        126,
        4,
        219,
        172,
        84,
        142,
        131,
        184,
        237,
        87,
        106,
        58,
        48,
        167
      ]
    },
    "name": "The.Grand.Budapest.Hotel.2014.BRRip.720p.x264.AAC-PRiSTiNE [P2PD",
    "announce": [
      "udp://exodus.desync.com:6969",
      "udp://open.demonii.com:1337",
      "udp://tracker.coppersurfer.tk:6969",
      "udp://tracker.openbittorrent.com:80"
    ],
    "urlList": []
  },
  "previous": 25,
  "peers": 2,
  "last_updated": "2016-12-27T13:47:42.222Z"
}